<svg width="48" height="48" viewBox="0 0 48 48" fill="none" xmlns="http://www.w3.org/2000/svg">
<path d="M47.2537 29.8115C45.7146 35.9858 41.787 41.2955 36.3349 44.5728C30.8827 47.8502 24.3526 48.8266 18.1808 47.2874C12.0092 45.7477 6.70165 41.8184 3.42571 36.364C0.14978 30.9095 -0.82626 24.3766 0.712294 18.2022C1.47346 15.141 2.83053 12.2599 4.70586 9.72394C6.58119 7.18796 8.93798 5.04681 11.6413 3.42302C14.3447 1.79922 17.3416 0.724658 20.4605 0.260811C23.5794 -0.203036 26.7592 -0.0470608 29.8178 0.719811C32.8743 1.48217 35.7509 2.83945 38.283 4.71413C40.8152 6.58881 42.9534 8.94416 44.5756 11.6457C46.1977 14.3472 47.272 17.3419 47.7371 20.4588C48.2022 23.5758 48.049 26.7538 47.2862 29.8115H47.2537Z" fill="#0075FF"/>
<path d="M34.3752 20.5132C34.851 17.3306 32.4199 15.6159 29.0958 14.4793L30.1778 10.1665L27.5707 9.51696L26.5148 13.7128C25.8239 13.544 25.1135 13.3816 24.4095 13.2192L25.4654 8.99735L22.8583 8.34784L21.7829 12.6606C21.2093 12.5242 20.6488 12.4008 20.1013 12.2644L16.4709 11.3616L15.7735 14.161C15.7735 14.161 17.7288 14.6092 17.6832 14.6351C18.048 14.6776 18.3812 14.8617 18.6106 15.1474C18.84 15.4332 18.947 15.7976 18.9085 16.1615L17.6767 21.0913L15.9038 27.9307C15.8688 28.0531 15.8095 28.1672 15.7295 28.2664C15.6496 28.3656 15.5505 28.4479 15.4382 28.5084C15.3258 28.5689 15.2025 28.6065 15.0754 28.6188C14.9483 28.6311 14.82 28.618 14.6981 28.5802C14.6981 28.6192 12.7818 28.1061 12.7818 28.1061L11.4783 31.1068L14.9066 31.9642C15.5584 32.1201 16.1646 32.2889 16.7772 32.4448L15.6888 36.8031L18.2959 37.4526L19.3974 33.1268C20.1208 33.3217 20.8182 33.497 21.4961 33.6659L20.4207 37.9592L23.0278 38.6087L24.1163 34.257C28.607 35.1013 31.9832 34.7636 33.4041 30.7171C34.5512 27.4695 33.3519 25.5795 30.986 24.3519C32.7067 23.9557 34.0037 22.8255 34.3492 20.5003L34.3752 20.5132ZM28.3593 28.918C27.5446 32.1655 22.0371 30.4183 20.2512 29.9702L21.6981 24.196C23.484 24.6377 29.2066 25.495 28.3593 28.918ZM29.174 20.4743C28.431 23.4426 23.849 21.9357 22.363 21.5655L23.6665 16.3239C25.1591 16.6811 29.9497 17.3696 29.174 20.4613V20.4743Z" fill="white"/>
</svg>
