<svg width="46" height="46" viewBox="0 0 46 46" fill="none" xmlns="http://www.w3.org/2000/svg">
<path d="M22.9891 9.53334e-07C18.9293 0.00217403 14.9423 1.06856 11.4333 3.09084C7.92426 5.11312 5.01817 8.01923 3.01023 11.514C1.00229 15.0087 -0.035962 18.9676 0.000951023 22.9883C0.037864 27.0091 1.14862 30.9486 3.22039 34.4066L0.310852 46L11.8413 42.7101C14.9128 44.3967 18.3334 45.3644 21.8409 45.539C25.3485 45.7136 28.8499 45.0905 32.0766 43.7175C35.3034 42.3444 38.1699 40.2578 40.4565 37.6177C42.743 34.9776 44.3888 31.854 45.2678 28.4863C46.1468 25.1187 46.2356 21.5964 45.5274 18.1895C44.8193 14.7826 43.3329 11.5816 41.1822 8.8317C39.0316 6.08182 36.2738 3.85614 33.1202 2.32528C29.9667 0.794407 26.5011 -0.00100519 22.9891 9.53334e-07Z" fill="url(#paint0_radial_16_12)"/>
<path d="M23.2505 3.95435C19.7668 3.95502 16.3496 4.89943 13.3689 6.68534C10.3882 8.47125 7.95751 11.0306 6.33991 14.0864C4.72232 17.1423 3.97946 20.5781 4.19175 24.022C4.40404 27.4659 5.5634 30.7867 7.54432 33.6249L5.86594 40.3248L12.4313 38.457C14.8974 40.1343 17.7269 41.2142 20.6917 41.6097C23.6565 42.0052 26.6736 41.7053 29.4999 40.734C32.3262 39.7628 34.8825 38.1475 36.9629 36.0183C39.0432 33.8891 40.5894 31.3056 41.4766 28.476C42.3639 25.6464 42.5676 22.6499 42.0711 19.7281C41.5746 16.8062 40.392 14.0408 38.6185 11.6547C36.8449 9.26861 34.5302 7.3286 31.8608 5.99106C29.1914 4.65351 26.242 3.95586 23.2505 3.95435Z" fill="#DB4639"/>
<mask id="mask0_16_12" style="mask-type:luminance" maskUnits="userSpaceOnUse" x="4" y="3" width="39" height="39">
<path d="M23.2505 3.95435C19.7668 3.95502 16.3496 4.89943 13.3689 6.68534C10.3882 8.47125 7.95751 11.0306 6.33991 14.0864C4.72232 17.1423 3.97946 20.5781 4.19175 24.022C4.40404 27.4659 5.5634 30.7867 7.54432 33.6249L5.86594 40.3248L12.4313 38.457C14.8974 40.1343 17.7269 41.2142 20.6917 41.6097C23.6565 42.0052 26.6736 41.7053 29.4999 40.734C32.3262 39.7628 34.8825 38.1475 36.9629 36.0183C39.0432 33.8891 40.5894 31.3056 41.4766 28.476C42.3639 25.6464 42.5676 22.6499 42.0711 19.7281C41.5746 16.8062 40.392 14.0408 38.6185 11.6547C36.8449 9.26861 34.5302 7.3286 31.8608 5.99106C29.1914 4.65351 26.242 3.95586 23.2505 3.95435Z" fill="white"/>
</mask>
<g mask="url(#mask0_16_12)">
<path style="mix-blend-mode:multiply" d="M43.515 36.0796L31.0578 48.4175L10.9685 28.5206L12.7035 17.5782L23.4257 16.1828L43.515 36.0796Z" fill="url(#paint1_linear_16_12)"/>
<path d="M26.3217 21.6446H17.7682V24.6731H22.8868C22.542 25.6088 21.9448 26.4331 21.1601 27.0562C20.3754 27.6793 19.4333 28.0774 18.4361 28.2073C17.4389 28.3372 16.4248 28.1938 15.5042 27.7927C14.5835 27.3917 13.7915 26.7483 13.2142 25.9326C12.6369 25.1169 12.2965 24.1601 12.2298 23.1661C12.1632 22.1722 12.373 21.1792 12.8364 20.2951C13.2998 19.411 13.999 18.6696 14.8581 18.1515C15.7171 17.6335 16.7031 17.3586 17.7089 17.3568C18.9903 17.3536 20.2314 17.8008 21.2111 18.6189H21.3539L23.6088 16.3482C22.0079 14.8783 19.9054 14.0616 17.7224 14.0616C12.8731 14.0616 8.96411 18.0079 8.96411 22.8667C8.96411 27.7255 12.8839 31.6718 17.7224 31.6718C18.3567 31.6731 18.9893 31.6042 19.6082 31.4663C20.8584 31.1932 22.0317 30.6482 23.0431 29.8707C24.0518 29.0883 24.8788 28.1001 25.4677 26.9731C25.7661 26.3995 26.0009 25.7956 26.1681 25.172C26.3756 24.3929 26.3217 23.6084 26.3217 22.8106V21.6446Z" fill="white"/>
<path style="mix-blend-mode:multiply" d="M34.2984 19.0687L29.1741 24.1439L38.7274 33.6058L43.8518 28.5305L34.2984 19.0687Z" fill="url(#paint2_linear_16_12)"/>
<path d="M34.3042 19.0538H31.7368V26.6448H34.3042V19.0538Z" fill="white"/>
<path d="M36.8527 21.5779H29.1882V24.1207H36.8527V21.5779Z" fill="white"/>
</g>
<defs>
<radialGradient id="paint0_radial_16_12" cx="0" cy="0" r="1" gradientUnits="userSpaceOnUse" gradientTransform="translate(0.00642614 49.0925) scale(52.0081 51.5099)">
<stop offset="0.22" stop-color="#E7E7E7"/>
<stop offset="0.88" stop-color="#FCFCFC"/>
</radialGradient>
<linearGradient id="paint1_linear_16_12" x1="11.7667" y1="17.5471" x2="34.9238" y2="40.6626" gradientUnits="userSpaceOnUse">
<stop stop-color="#B3B3B3"/>
<stop offset="0.77" stop-color="white"/>
</linearGradient>
<linearGradient id="paint2_linear_16_12" x1="31.7217" y1="21.6503" x2="40.773" y2="30.6672" gradientUnits="userSpaceOnUse">
<stop stop-color="#B3B3B3"/>
<stop offset="0.77" stop-color="white"/>
</linearGradient>
</defs>
</svg>
